<?xml version="1.0" encoding="UTF-8"?>
<svg id="Layer_2" xmlns="http://www.w3.org/2000/svg" viewBox="0 0 174.51 77.8">
  <g id="Layer_1-2" data-name="Layer_1">
    <g>
      <g>
        <path d="M21.04,39.79c-.2,3.92.81,5.95,3.25,5.95,1.15,0,2.1-.74,2.3-.74.34,0,.81.74.61,1.35-1.35,1.89-4.67,2.98-6.76,2.98-1.69,0-3.59-.47-4.87-1.89-.47-.47-.74-.81-1.08-.81s-.81.34-1.83.95c-1.29.81-3.31,1.76-5.75,1.76-4.6,0-6.9-3.18-6.9-6.56,0-2.44.95-4.67,5.61-6.29,2.37-.81,4.94-1.76,7.44-2.71,1.35-.47,1.56-1.08,1.56-1.76l.07-1.76c.14-3.45-.81-6.43-4.13-6.43-1.89,0-3.31,1.01-3.59,2.98-.14,1.29-.54,1.96-1.29,2.44-.95.61-2.84,1.22-4.33,1.22-.88,0-1.29-.47-1.29-1.08,0-.81.41-2.23,2.64-4.33,2.1-1.96,6.97-4.26,10.42-4.26,5.34,0,8.66,2.5,8.39,8.46l-.47,10.55ZM14.41,37.49c0-.74-.2-1.15-.54-1.15-.54,0-1.76.34-2.98.81-1.89.68-3.65,1.62-3.65,4.53,0,1.76,1.22,3.92,3.79,3.92,2.44,0,3.18-1.62,3.25-3.25l.14-4.87Z" style="fill: #fff;"/>
        <path d="M56.01,37.35c0,6.16.47,8.25,1.62,8.25.74,0,1.83-.2,2.84-.61.54.41.68,2.03-.07,2.43-3.45.34-8.25,1.49-10.69,2.57-.34-.07-.68-.34-.81-.74l.14-1.01c.14-1.01.07-1.56-.07-1.89l-.34-.07c-2.03,1.49-4.53,3.04-7.78,3.04-7.71,0-12.51-6.22-12.51-12.99,0-9.74,7.78-15.56,16.23-15.56,1.76,0,3.04.2,3.92.47.27-.07.41-.34.41-1.08v-8.86c0-4.53-.14-4.94-1.56-5.89l-.95-.61c-.41-.27-.47-1.35,0-1.56,2.64-.74,6.16-2.16,8.86-3.25.41-.07.81.2.95.54-.14,2.71-.2,6.9-.2,9.81v26.99ZM48.9,29.03c0-1.35-.2-2.3-.88-3.25-.95-1.28-2.44-2.3-4.53-2.3-4.6,0-7.51,4.53-7.51,10.21,0,6.97,3.65,11.57,8.46,11.57,1.62,0,3.45-.88,3.99-1.49.34-.34.47-.95.47-1.89v-12.85Z" style="fill: #fff;"/>
        <path d="M84.14,39.79c-.2,3.92.81,5.95,3.25,5.95,1.15,0,2.1-.74,2.3-.74.34,0,.81.74.61,1.35-1.35,1.89-4.67,2.98-6.76,2.98-1.69,0-3.59-.47-4.87-1.89-.47-.47-.74-.81-1.08-.81s-.81.34-1.83.95c-1.29.81-3.31,1.76-5.75,1.76-4.6,0-6.9-3.18-6.9-6.56,0-2.44.95-4.67,5.61-6.29,2.37-.81,4.94-1.76,7.44-2.71,1.35-.47,1.56-1.08,1.56-1.76l.07-1.76c.13-3.45-.81-6.43-4.13-6.43-1.89,0-3.31,1.01-3.59,2.98-.14,1.29-.54,1.96-1.29,2.44-.95.61-2.84,1.22-4.33,1.22-.88,0-1.29-.47-1.29-1.08,0-.81.41-2.23,2.64-4.33,2.1-1.96,6.97-4.26,10.42-4.26,5.34,0,8.66,2.5,8.39,8.46l-.47,10.55ZM77.51,37.49c0-.74-.2-1.15-.54-1.15-.54,0-1.76.34-2.98.81-1.89.68-3.65,1.62-3.65,4.53,0,1.76,1.22,3.92,3.79,3.92,2.44,0,3.18-1.62,3.25-3.25l.14-4.87Z" style="fill: #fff;"/>
        <path d="M95.3,30.38c0-3.04,0-3.86-1.69-4.87l-.81-.47c-.2-.27-.2-1.22.07-1.56,2.98-.81,6.63-2.44,8.79-3.65.47,0,.74.27.88.54-.13,1.29-.13,2.57-.13,3.11,0,.47.2.61.61.68,3.31-1.76,5.07-3.38,9.67-3.38,2.91,0,5.14,1.56,6.09,2.84.41.61.81,1.01,1.08,1.01s.68-.2,1.49-.68c3.18-1.96,5.48-3.18,8.66-3.18,5.68,0,8.25,3.79,8.25,9.06v10.48c0,5.01.27,5.75,2.57,6.09l1.49.2c.61.47.27,1.69,0,1.96-2.91-.14-5.21-.2-7.71-.2-2.23,0-4.53.07-6.97.2-.54-.27-.61-1.49-.14-1.96l1.08-.2c2.3-.41,2.57-1.08,2.57-6.09v-9.2c0-3.58-1.22-6.29-5.48-6.29-1.96,0-3.72,1.01-4.53,2.03-.68.81-.81,1.62-.81,3.52v9.94c0,5.01.27,5.82,2.57,6.16l1.02.14c.47.47.41,1.69-.14,1.96-2.37-.14-4.6-.2-7.1-.2-2.23,0-4.53.07-6.77.2-.54-.27-.61-1.49-.13-1.96l.88-.14c2.3-.34,2.57-1.15,2.57-6.16v-9.2c0-3.58-1.22-6.29-5.14-6.29-2.3,0-4.06,1.08-4.8,2.1-.81,1.08-.88,1.69-.88,4.33v9.06c0,5.01.27,5.82,2.57,6.16l1.01.14c.47.47.41,1.69-.14,1.96-2.37-.14-4.67-.2-7.17-.2-2.23,0-4.47.07-7.04.2-.54-.27-.61-1.49-.13-1.96l1.22-.2c2.3-.41,2.57-1.08,2.57-6.09v-9.94Z" style="fill: #fff;"/>
        <path d="M174.51,34.71c0,9.61-6.77,14.61-14.81,14.61s-14.27-4.94-14.27-13.8,6.9-14.75,14.81-14.75,14.27,5.14,14.27,13.93ZM160.51,46.62c4.67,0,6.02-5.55,6.02-10.76,0-5.68-1.96-12.38-6.97-12.38-3.45,0-6.16,3.52-6.16,11.03,0,6.16,2.23,12.11,7.1,12.11Z" style="fill: #fff;"/>
      </g>
      <g>
        <path d="M16.2,72.63c-.55,0-1.02-.19-1.41-.58-.39-.39-.58-.86-.58-1.41s.19-1,.58-1.38c.39-.38.86-.57,1.41-.57s1,.19,1.38.57c.38.38.57.84.57,1.38s-.19,1.02-.57,1.41c-.38.39-.84.58-1.38.58Z" style="fill: #fff;"/>
        <path d="M30.97,76.26h6.31v1.3h-7.69v-13.8h1.38v12.5Z" style="fill: #fff;"/>
        <path d="M41.22,63.76h1.38v13.8h-1.38v-13.8Z" style="fill: #fff;"/>
        <path d="M51.43,77.56l-5.09-13.8h1.5l4.3,11.97,4.3-11.97h1.5l-5.09,13.8h-1.42Z" style="fill: #fff;"/>
        <path d="M63.07,76.26h6.7v1.3h-8.08v-13.8h7.98v1.3h-6.6v4.89h6.11v1.3h-6.11v5.01Z" style="fill: #fff;"/>
        <path d="M82.4,72.63c-.55,0-1.02-.19-1.41-.58-.39-.39-.58-.86-.58-1.41s.19-1,.58-1.38.86-.57,1.41-.57,1,.19,1.38.57c.38.38.57.84.57,1.38s-.19,1.02-.57,1.41c-.38.39-.84.58-1.38.58Z" style="fill: #fff;"/>
        <path d="M97.17,76.26h6.31v1.3h-7.69v-13.8h1.38v12.5Z" style="fill: #fff;"/>
        <path d="M117.85,75.72c-1.38,1.39-3.07,2.08-5.07,2.08s-3.69-.69-5.07-2.08c-1.38-1.39-2.07-3.07-2.07-5.06s.69-3.67,2.07-5.06c1.38-1.39,3.07-2.08,5.07-2.08s3.69.69,5.07,2.08c1.38,1.39,2.07,3.07,2.07,5.06s-.69,3.67-2.07,5.06ZM108.68,74.77c1.1,1.12,2.47,1.69,4.1,1.69s3-.56,4.1-1.69c1.1-1.12,1.66-2.49,1.66-4.11s-.55-2.99-1.66-4.11c-1.1-1.12-2.47-1.69-4.1-1.69s-3,.56-4.1,1.69c-1.1,1.12-1.66,2.49-1.66,4.11s.55,2.99,1.66,4.11Z" style="fill: #fff;"/>
        <path d="M127.37,77.56l-5.09-13.8h1.5l4.3,11.97,4.3-11.97h1.5l-5.09,13.8h-1.42Z" style="fill: #fff;"/>
        <path d="M139,76.26h6.7v1.3h-8.08v-13.8h7.98v1.3h-6.6v4.89h6.11v1.3h-6.11v5.01Z" style="fill: #fff;"/>
        <path d="M158.34,72.63c-.55,0-1.02-.19-1.41-.58-.39-.39-.58-.86-.58-1.41s.19-1,.58-1.38.86-.57,1.41-.57,1,.19,1.38.57c.38.38.57.84.57,1.38s-.19,1.02-.57,1.41c-.38.39-.84.58-1.38.58Z" style="fill: #fff;"/>
      </g>
    </g>
  </g>
</svg>